#!OML:ASF F:\VICON\USERDATA\INSTALL\rory3\rory3.ASF
:FULLY-SPECIFIED
:DEGREES
517
root 7.41392 17.4125 2.91475 8.52444 50.3797 4.94617
lowerback 8.40985 2.84226 -3.97618
upperback 3.64969 3.55052 1.71185
thorax -1.26927 1.75684 3.66239
lowerneck 11.3595 -18.0848 -23.9607
upperneck -15.538 -25.2333 33.1202
head 1.59771 -13.8047 13.2624
rclavicle -4.77083e-014 -8.74653e-015
rhumerus -40.851 -35.5915 -59.8554
rradius 19.5371
rwrist 7.21323
rhand -12.7183 23.9219
rfingers 7.12502
rthumb 13.3648 -5.62948
lclavicle -4.77083e-014 -8.74653e-015
lhumerus -85.5665 51.8907 21.9465
lradius 19.1947
lwrist -7.47922
lhand -5.59342 34.5013
lfingers 7.12502
lthumb 20.2232 63.4685
rfemur -32.696 -4.97105 8.94522
rtibia 30.2465
rfoot -12.0115 -19.1048
rtoes 23.971
lfemur -6.19741 -11.9049 -21.7901
ltibia 30.3523
lfoot -13.8679 -34.8898
ltoes 39.0506
518
root 7.42853 17.4129 2.95244 8.03834 50.4044 4.09554
lowerback 8.49318 2.7675 -3.40994
upperback 3.42843 3.48997 1.80822
thorax -1.51394 1.73679 3.44034
lowerneck 11.3561 -17.9851 -23.8194
upperneck -15.5374 -25.0668 33.0309
head 1.51651 -13.7208 13.2601
rclavicle -2.3059e-014 4.77083e-015
rhumerus -41.9496 -36.5401 -58.5707
rradius 18.7638
rwrist 8.29626
rhand -11.9615 22.9512
rfingers 7.12502
rthumb 14.0941 -6.55087
lclavicle -2.3059e-014 4.77083e-015
lhumerus -83.4887 51.4454 24.2145
lradius 19.3345
lwrist -7.93151
lhand -6.20498 33.7336
lfingers 7.12502
lthumb 19.6353 62.7619
rfemur -32.9529 -4.97042 9.67188
rtibia 30.5436
rfoot -11.6633 -19.0044
rtoes 23.556
lfemur -6.20494 -11.6676 -21.0829
ltibia 30.1746
lfoot -13.4063 -35.2155
ltoes 39.2874
519
root 7.41766 17.4022 3.00511 10.9768 50.0667 6.77223
lowerback 7.90835 2.8873 -5.65118
upperback 3.09776 3.48265 1.43528
thorax -1.6334 1.73007 4.33113
lowerneck 11.3345 -18.0125 -23.9513
upperneck -15.5098 -25.1247 33.2255
head 1.59957 -13.755 13.3188
rclavicle 6.89783e-014 -9.54166e-015
rhumerus -42.942 -37.5105 -57.2278
rradius 18.1665
rwrist 9.06351
rhand -11.7997 22.4952
rfingers 7.12502
rthumb 14.25 -6.99596
lclavicle 6.89783e-014 -9.54166e-015
lhumerus -81.867 51.2027 25.8743
lradius 19.5641
lwrist -8.52057
lhand -5.41898 33.4234
lfingers 7.12502
lthumb 20.3908 62.3728
rfemur -34.2227 -4.65125 7.82461
rtibia 31.0097
rfoot -11.5075 -19.3889
rtoes 23.5762
lfemur -7.03614 -11.5499 -22.6448
ltibia 29.8965
lfoot -12.4164 -35.3898
ltoes 41.0567
520
root 7.40693 17.3963 3.04939 12.9795 49.6401 8.60779
lowerback 7.76599 3.0062 -7.26666
upperback 2.75957 3.51037 1.20147
thorax -1.98365 1.75851 4.99021
lowerneck 11.3977 -18.076 -24.0364
upperneck -15.4571 -25.2484 33.2912
head 1.66193 -13.8208 13.3236
rclavicle -7.25564e-014 1.27222e-014
rhumerus -43.938 -38.14 -55.9926
rradius 17.7653
rwrist 9.42058
rhand -11.9259 22.2099
rfingers 7.12502
rthumb 14.1284 -7.28979
lclavicle -7.25564e-014 1.27222e-014
lhumerus -79.8658 50.6106 27.9622
lradius 19.9223
lwrist -7.67374
lhand -3.48442 33.3009
lfingers 7.12502
lthumb 22.249 62.0402
rfemur -35.2893 -4.2719 6.51665
rtibia 31.6246
rfoot -11.3607 -19.6272
rtoes 23.7293
lfemur -7.48872 -11.3933 -23.7222
ltibia 29.5252
lfoot -12.1181 -35.3401
ltoes 41.3982
521
root 7.40409 17.3938 3.08427 13.3088 49.196 8.68801
lowerback 7.48841 2.96189 -7.85859
upperback 2.87032 3.44097 1.45845
thorax -1.75058 1.71156 5.61779
lowerneck 10.9578 -18.0778 -24.0471
upperneck -15.6177 -25.1449 33.1153
head 1.62948 -13.7277 13.2423
rclavicle -1.1291e-013 1.59028e-015
rhumerus -43.6945 -38.2958 -55.5726
rradius 17.4995
rwrist 9.31736
rhand -12.0293 21.7201
rfingers 7.12502
rthumb 14.0287 -7.7865
lclavicle -1.1291e-013 1.59028e-015
lhumerus -74.1924 49.6097 35.6248
lradius 20.1262
lwrist -5.55943
lhand -6.62119 33.2429
lfingers 7.12502
lthumb 19.2351 62.3117
rfemur -36.0259 -3.59559 6.37723
rtibia 32.2124
rfoot -11.3884 -19.7421
rtoes 25.3778
lfemur -7.56956 -11.0784 -23.7118
ltibia 29.2028
lfoot -11.8431 -35.2953
ltoes 41.7995
522
root 7.41782 17.3926 3.12081 12.9055 49.1632 8.02286
lowerback 7.36149 2.82433 -7.63111
upperback 2.95588 3.29479 1.76929
thorax -1.57434 1.62991 5.84026
lowerneck 10.5391 -18.0616 -24.1055
upperneck -15.5517 -25.0656 33.019
head 1.68462 -13.6473 13.1786
rclavicle -3.18055e-015 1.98785e-014
rhumerus -43.6706 -38.26 -55.3022
rradius 17.5043
rwrist 8.99818
rhand -11.9887 21.2693
rfingers 7.12502
rthumb 14.0679 -8.23452
lclavicle -3.18055e-015 1.98785e-014
lhumerus -71.2718 49.0858 39.1931
lradius 20.4953
lwrist -3.41411
lhand -8.00488 33.3179
lfingers 7.12502
lthumb 17.9041 62.5137
rfemur -36.3369 -3.74913 7.02053
rtibia 32.6337
rfoot -11.1252 -19.2467
rtoes 26.9048
lfemur -7.50899 -10.6692 -23.1803
ltibia 29.0212
lfoot -11.2815 -35.5799
ltoes 42.4331
523
root 7.43804 17.3899 3.15267 12.6619 49.2543 7.64631
lowerback 7.50072 2.69506 -7.21916
upperback 2.90741 3.14097 1.83451
thorax -1.66211 1.55896 5.68467
lowerneck 10.4185 -17.9516 -24.1247
upperneck -15.5429 -24.8867 33.179
head 1.6927 -13.5598 13.2626
rclavicle -8.15017e-014 -1.98785e-014
rhumerus -43.8715 -38.0034 -55.2744
rradius 17.5943
rwrist 8.32948
rhand -11.9238 20.9012
rfingers 7.12502
rthumb 14.1304 -8.5983
lclavicle -8.15017e-014 -1.98785e-014
lhumerus -72.9299 49.93 36.0497
lradius 20.5756
lwrist -8.10368
lhand -2.82043 32.1182
lfingers 7.12502
lthumb 22.8863 60.7801
rfemur -36.4726 -4.62696 7.67474
rtibia 32.944
rfoot -10.1917 -18.3953
rtoes 26.8533
lfemur -7.38061 -10.5979 -22.8729
ltibia 28.9093
lfoot -10.7936 -35.7152
ltoes 42.7198
524
root 7.44746 17.3849 3.1841 13.21 49.135 8.19898
lowerback 7.78169 2.60004 -7.41437
upperback 2.75015 2.9694 1.66899
thorax -1.95628 1.48807 5.62496
lowerneck 10.2256 -17.8081 -24.0871
upperneck -15.5609 -24.6351 33.2473
head 1.65972 -13.4265 13.3211
rclavicle 3.37934e-014 2.38542e-014
rhumerus -44.0242 -37.5205 -55.5173
rradius 17.879
rwrist 7.08741
rhand -11.745 20.3717
rfingers 7.12502
rthumb 14.3028 -9.11573
lclavicle 3.37934e-014 2.38542e-014
lhumerus -72.4735 50.0429 35.894
lradius 20.9692
lwrist -9.27108
lhand -1.89473 31.8518
lfingers 7.12502
lthumb 23.7744 60.401
rfemur -36.763 -4.98334 7.46171
rtibia 33.2342
rfoot -9.64676 -18.0876
rtoes 28.3701
lfemur -7.35769 -10.9802 -23.2011
ltibia 28.8945
lfoot -10.4266 -35.5454
ltoes 43.1662
525
root 7.48149 17.3951 3.2426 13.0675 49.493 8.1698
lowerback 8.13373 2.29019 -6.77644
upperback 2.58207 2.5671 1.34444
thorax -2.22648 1.30101 4.95095
lowerneck 9.86583 -17.6931 -23.7211
upperneck -15.2057 -24.4087 33.1631
head 1.68957 -13.2883 13.2431
rclavicle 2.76311e-014 2.62396e-014
rhumerus -44.5907 -37.1585 -55.9673
rradius 18.3359
rwrist 5.89531
rhand -11.2974 19.7269
rfingers 7.12502
rthumb 14.734 -9.7295
lclavicle 2.76311e-014 2.62396e-014
lhumerus -70.7003 49.1817 36.8141
lradius 21.3938
lwrist -8.84964
lhand -2.39708 32.1119
lfingers 7.12502
lthumb 23.2925 60.7229
rfemur -36.4827 -5.71836 7.72318
rtibia 33.5115
rfoot -9.41102 -17.4743
rtoes 30.7445
lfemur -7.04987 -10.6822 -23.1291
ltibia 28.9507
lfoot -11.7598 -35.7064
ltoes 40.0887
526
root 7.49845 17.4094 3.29412 13.1125 49.4772 8.19768
lowerback 8.64035 2.07128 -6.00549
upperback 2.22792 2.27412 0.682294
thorax -2.78375 1.17646 3.83399
lowerneck 9.87431 -17.5423 -23.0488
upperneck -14.844 -24.1495 33.2443
head 1.64133 -13.1846 13.2372
rclavicle -3.18055e-015 5.56597e-015
rhumerus -45.4272 -37.0063 -56.593
rradius 18.797
rwrist 4.94596
rhand -11.1049 19.314
rfingers 7.12502
rthumb 14.9195 -10.1287
lclavicle -3.18055e-015 5.56597e-015
lhumerus -67.4561 47.1139 39.1235
lradius 21.7956
lwrist -7.01503
lhand -2.22179 32.6346
lfingers 7.12502
lthumb 23.4606 61.2243
rfemur -36.5375 -5.91071 7.87516
rtibia 33.798
rfoot -8.66144 -16.9884
rtoes 30.3621
lfemur -7.14313 -9.51072 -23.1881
ltibia 29.0357
lfoot -14.8251 -35.5261
ltoes 32.9952
527
root 7.50943 17.4166 3.33346 13.1888 49.3965 8.11037
lowerback 8.90951 1.89564 -5.43974
upperback 2.0365 2.0564 0.329041
thorax -3.07715 1.07504 3.16239
lowerneck 9.84555 -17.5168 -22.5607
upperneck -14.6755 -24.0577 33.261
head 1.60438 -13.154 13.1931
rclavicle 1.78906e-015 -2.06736e-014
rhumerus -45.6282 -36.6798 -57.2405
rradius 19.1574
rwrist 4.19577
rhand -11.8788 19.9275
rfingers 7.12502
rthumb 14.1738 -9.56892
lclavicle 1.78906e-015 -2.06736e-014
lhumerus -64.6274 45.5077 41.4002
lradius 22.0866
lwrist -5.88792
lhand -0.968587 32.738
lfingers 7.12502
lthumb 24.6623 61.1688
rfemur -36.8145 -6.10423 8.13326
rtibia 34.1011
rfoot -7.7888 -16.5688
rtoes 28.9288
lfemur -7.32492 -9.07272 -23.1414
ltibia 29.1195
lfoot -15.9832 -35.2973
ltoes 29.6298
528
root 7.52205 17.4128 3.37351 13.1959 49.3148 7.97816
lowerback 8.93811 1.74486 -5.51172
upperback 2.02753 1.85401 0.5258
thorax -3.09143 0.97612 3.43194
lowerneck 9.58308 -17.469 -22.5218
upperneck -14.6553 -23.9442 33.0978
head 1.58807 -13.0694 13.1269
rclavicle 3.39922e-014 -1.59028e-014
rhumerus -45.3209 -35.9622 -57.6358
rradius 19.6557
rwrist 3.41039
rhand -12.5425 20.7742
rfingers 7.12502
rthumb 13.5342 -8.76598
lclavicle 3.39922e-014 -1.59028e-014
lhumerus -63.0758 45.0211 42.8431
lradius 22.2987
lwrist -5.76935
lhand -0.280549 32.5062
lfingers 7.12502
lthumb 25.3216 60.8453
rfemur -37.1151 -6.50959 8.50177
rtibia 34.5018
rfoot -7.10393 -15.9212
rtoes 29.0114
lfemur -7.27438 -9.27855 -23.0189
ltibia 29.1164
lfoot -15.5754 -35.1548
ltoes 29.9519
529
root 7.53546 17.4022 3.41955 13.5064 49.0889 8.26537
lowerback 8.7976 1.69332 -6.37934
upperback 2.06776 1.73279 1.00891
thorax -2.99727 0.920203 4.44587
lowerneck 9.34087 -17.3416 -22.82
upperneck -14.839 -23.7396 32.8059
head 1.50998 -12.9243 13.0957
rclavicle 2.18663e-014 -3.18055e-015
rhumerus -44.6768 -34.8932 -57.7476
rradius 20.2483
rwrist 1.9457
rhand -12.432 20.7303
rfingers 7.12502
rthumb 13.6407 -8.80272
lclavicle 2.18663e-014 -3.18055e-015
lhumerus -61.9234 44.6813 44.4266
lradius 22.5121
lwrist -5.97339
lhand -0.616207 32.5091
lfingers 7.12502
lthumb 25 60.8933
rfemur -37.497 -6.88171 8.55177
rtibia 35.0347
rfoot -6.5645 -15.1171
rtoes 29.4371
lfemur -7.07741 -9.2781 -23.2042
ltibia 28.868
lfoot -15.2844 -35.0519
ltoes 30.2157
